static_grf.mot
version=1
nRows=30
nColumns 19
inDegrees=yes
endheader
time	1_ground_force_vx	1_ground_force_vy	1_ground_force_vz	1_ground_force_px	1_ground_force_py	1_ground_force_pz	1_ground_torque_x	1_ground_torque_y	1_ground_torque_z	2_ground_force_vx	2_ground_force_vy	2_ground_force_vz	2_ground_force_px	2_ground_force_py	2_ground_force_pz	2_ground_torque_x	2_ground_torque_y	2_ground_torque_z
            0.005000	            2.281630	          401.401029	          -28.412750	           -0.278017	            0.006270	           -0.418149	            0.011623	            2.044868	           -0.144744	           -8.627763	          381.975250	           31.165831	           -0.262559	            0.005507	           -0.689630	            0.057610	           -2.550536	           -0.208101
            0.005500	            2.143954	          401.581495	          -28.457492	           -0.278067	            0.006270	           -0.418223	            0.010669	            1.998391	           -0.141613	           -8.720777	          381.790604	           31.212142	           -0.262879	            0.005506	           -0.689561	            0.057110	           -2.500258	           -0.204401
            0.006000	            2.282037	          401.039908	          -28.276728	           -0.278101	            0.006271	           -0.418421	            0.011777	            2.069646	           -0.145928	           -8.767045	          381.606964	           31.023793	           -0.262984	            0.005504	           -0.689340	            0.058708	           -2.555399	           -0.207748
            0.006500	            2.144329	          401.400609	          -28.320697	           -0.278091	            0.006270	           -0.418141	            0.010596	            1.983547	           -0.139949	           -8.671995	          381.238853	           31.069367	           -0.262925	            0.005504	           -0.689205	            0.056900	           -2.501459	           -0.203858
            0.007000	            2.189716	          401.401404	          -28.504234	           -0.277846	            0.006272	           -0.418628	            0.010973	            2.011402	           -0.142833	           -8.766360	          381.422655	           31.070064	           -0.262903	            0.005505	           -0.689420	            0.058288	           -2.536116	           -0.206588
            0.007500	            2.556379	          401.221437	          -28.551773	           -0.278059	            0.006270	           -0.418234	            0.012833	            2.014179	           -0.143333	           -8.906951	          381.422483	           30.976267	           -0.262813	            0.005505	           -0.689271	            0.058374	           -2.499749	           -0.203011
            0.008000	            2.372291	          401.402816	          -28.825681	           -0.278054	            0.006272	           -0.418566	            0.011967	            2.024907	           -0.145413	           -8.767648	          381.790602	           31.165234	           -0.262782	            0.005505	           -0.689413	            0.057355	           -2.497526	           -0.203871
            0.008500	            2.281986	          401.941070	          -28.227008	           -0.277775	            0.006269	           -0.417910	            0.011519	            2.028877	           -0.142481	           -8.481375	          380.319602	           30.831361	           -0.263047	            0.005502	           -0.688660	            0.056221	           -2.521063	           -0.204375
            0.009000	            2.373591	          401.760988	          -28.273864	           -0.278112	            0.006268	           -0.417846	            0.011982	            2.028075	           -0.142725	           -8.859457	          381.238679	           30.928662	           -0.262822	            0.005505	           -0.689299	            0.058884	           -2.533883	           -0.205566
            0.009500	            2.281498	          402.122092	          -28.409658	           -0.277666	            0.006270	           -0.418184	            0.011332	            1.997388	           -0.141114	           -8.811093	          380.869060	           31.349681	           -0.262896	            0.005504	           -0.689062	            0.058211	           -2.516225	           -0.207113
            0.010000	            2.281809	          401.040301	          -28.368440	           -0.278067	            0.006271	           -0.418525	            0.011374	            1.998978	           -0.141402	           -8.576987	          380.871077	           31.021085	           -0.262848	            0.005504	           -0.689164	            0.057184	           -2.539327	           -0.206822
            0.010500	            2.327359	          401.401234	          -28.458720	           -0.277826	            0.006271	           -0.418434	            0.011828	            2.040064	           -0.144637	           -8.530719	          381.054718	           31.209435	           -0.262971	            0.005504	           -0.689184	            0.057637	           -2.574552	           -0.210863
            0.011000	            2.373283	          401.581343	          -28.412205	           -0.278130	            0.006271	           -0.418401	            0.012033	            2.036126	           -0.144058	           -8.953780	          381.422146	           31.023216	           -0.263014	            0.005504	           -0.689173	            0.058234	           -2.480724	           -0.201771
            0.011500	            2.189944	          401.401011	          -28.412523	           -0.278086	            0.006270	           -0.418244	            0.010785	            1.976734	           -0.139920	           -8.578316	          381.239359	           31.022399	           -0.262770	            0.005505	           -0.689156	            0.057084	           -2.536958	           -0.206439
            0.012000	            2.144167	          401.040471	          -28.413955	           -0.278090	            0.006272	           -0.418626	            0.010435	            1.951703	           -0.138279	           -8.482561	          380.686773	           31.161172	           -0.262610	            0.005505	           -0.689145	            0.056819	           -2.549950	           -0.208727
            0.012500	            2.419305	          401.220624	          -28.368008	           -0.278062	            0.006270	           -0.418308	            0.012575	            2.085535	           -0.147456	           -8.627804	          381.975585	           31.071975	           -0.262773	            0.005505	           -0.689388	            0.055942	           -2.476695	           -0.201468
            0.013000	            2.511090	          400.679814	          -28.370555	           -0.277975	            0.006272	           -0.418669	            0.012980	            2.071086	           -0.146645	           -8.764989	          381.054039	           31.162606	           -0.262985	            0.005503	           -0.688887	            0.057716	           -2.509158	           -0.205199
            0.013500	            2.465508	          400.499177	          -28.279502	           -0.278247	            0.006273	           -0.418827	            0.012390	            2.012579	           -0.142109	           -8.719407	          381.421988	           31.304685	           -0.263000	            0.005504	           -0.689372	            0.057705	           -2.524265	           -0.207176
            0.014000	            2.327212	          401.581727	          -28.503803	           -0.278317	            0.006270	           -0.418177	            0.011917	            2.056329	           -0.145956	           -8.719489	          381.422657	           31.116972	           -0.262899	            0.005504	           -0.689124	            0.058328	           -2.551469	           -0.208152
            0.014500	            2.602123	          401.762212	          -28.549568	           -0.278116	            0.006271	           -0.418339	            0.013706	            2.116141	           -0.150375	           -8.952512	          381.054367	           30.881117	           -0.262995	            0.005504	           -0.689230	            0.058400	           -2.485724	           -0.201446
            0.015000	            2.465293	          402.301637	          -28.225917	           -0.277673	            0.006268	           -0.417763	            0.012312	            2.009099	           -0.140961	           -8.859395	          381.238176	           31.069447	           -0.262868	            0.005504	           -0.689102	            0.058981	           -2.538074	           -0.206843
            0.015500	            2.556657	          400.319881	          -28.509782	           -0.278141	            0.006272	           -0.418782	            0.013525	            2.117766	           -0.150822	           -8.722813	          382.343422	           31.120257	           -0.262772	            0.005505	           -0.689422	            0.058820	           -2.578224	           -0.209851
            0.016000	            2.465295	          401.040140	          -28.323039	           -0.277984	            0.006271	           -0.418376	            0.012840	            2.088791	           -0.147519	           -8.580269	          381.791446	           31.118226	           -0.263117	            0.005504	           -0.689217	            0.057321	           -2.550582	           -0.207887
            0.016500	            2.144283	          399.778838	          -28.465221	           -0.278312	            0.006274	           -0.419052	            0.010818	            2.016880	           -0.143607	           -8.864047	          382.527222	           31.074046	           -0.262633	            0.005506	           -0.689495	            0.057187	           -2.467897	           -0.200476
            0.017000	            2.419159	          401.401055	          -28.413092	           -0.278052	            0.006270	           -0.418194	            0.012243	            2.031498	           -0.143799	           -8.344690	          381.424011	           31.116813	           -0.262798	            0.005504	           -0.689032	            0.056098	           -2.564170	           -0.209187
            0.017500	            2.373040	          401.041105	          -28.552091	           -0.278423	            0.006271	           -0.418495	            0.012029	            2.032897	           -0.144732	           -8.627804	          381.975585	           31.071975	           -0.262605	            0.005506	           -0.689334	            0.058168	           -2.575256	           -0.209485
            0.018000	            2.281076	          401.942643	          -28.593855	           -0.277673	            0.006269	           -0.417996	            0.011643	            2.051499	           -0.145942	           -8.623796	          380.870573	           31.114961	           -0.262741	            0.005504	           -0.689014	            0.058167	           -2.568963	           -0.209870
            0.018500	            2.052058	          400.861004	          -28.597924	           -0.278118	            0.006271	           -0.418346	            0.009957	            1.945137	           -0.138769	           -8.811881	          381.054205	           31.068770	           -0.262936	            0.005504	           -0.689182	            0.058254	           -2.519105	           -0.205392
            0.019000	            2.419485	          400.859896	          -28.323698	           -0.278387	            0.006272	           -0.418590	            0.012527	            2.075448	           -0.146646	           -8.719448	          381.422323	           31.210828	           -0.262842	            0.005503	           -0.688926	            0.058969	           -2.579538	           -0.211077
            0.019500	            2.419111	          401.040721	          -28.460493	           -0.278229	            0.006271	           -0.418485	            0.012359	            2.048872	           -0.145401	           -8.532049	          381.422999	           31.210749	           -0.262901	            0.005505	           -0.689325	            0.056720	           -2.535663	           -0.207486
